<?xml version="1.0" encoding="UTF-8"?>
<!DOCTYPE svg PUBLIC "-//W3C//DTD SVG 1.1//EN" "http://www.w3.org/Graphics/SVG/1.1/DTD/svg11.dtd">
<!-- Creator: CorelDRAW X8 -->
<svg xmlns="http://www.w3.org/2000/svg" xml:space="preserve" width="493px" height="332px" version="1.1" style="shape-rendering:geometricPrecision; text-rendering:geometricPrecision; image-rendering:optimizeQuality; fill-rule:evenodd; clip-rule:evenodd"
viewBox="0 0 488 329"
 xmlns:xlink="http://www.w3.org/1999/xlink">
 <defs>
  <style type="text/css">
   <![CDATA[
    .fil0 {fill:#73563F}
    .fil1 {fill:#D19044}
    .fil4 {fill:#D6563A}
    .fil2 {fill:#F4A544}
    .fil3 {fill:#FFDDA3}
   ]]>
  </style>
 </defs>
 <g id="Layer_x0020_1">
  <metadata id="CorelCorpID_0Corel-Layer"/>
  <path class="fil0" d="M54 324l-19 -4c-11,-3 -19,-10 -20,-21l-15 -269c-1,-12 10,-18 20,-21l19 -6c6,-2 13,-3 19,-3 72,4 145,8 217,11 58,3 117,6 175,9 16,1 28,16 29,32 1,34 3,68 4,102 2,33 4,67 5,101 1,15 -10,31 -26,33 -57,6 -114,12 -171,18 -71,8 -142,15 -213,23 -8,1 -17,-1 -24,-5z"/>
  <path class="fil1" d="M48 7l-27 7c-8,3 -15,7 -15,16l15 268c0,9 7,14 15,16l36 8c9,2 17,-7 16,-15l-25 -284c-1,-9 -7,-18 -15,-16z"/>
  <path class="fil2" d="M58 7c78,4 150,8 217,11 62,3 120,6 175,9 11,1 22,12 22,25 2,34 3,68 5,102 1,34 3,67 4,101 1,13 -8,25 -20,26 -53,6 -110,12 -171,18 -66,7 -136,15 -212,23 -19,2 -35,-10 -36,-27 -3,-42 -5,-85 -8,-128 -3,-44 -6,-87 -9,-131 -1,-17 14,-30 33,-29z"/>
  <path class="fil3" d="M73 34c72,3 138,5 200,8 59,2 113,4 164,6 7,0 14,7 14,15 1,22 2,43 3,65 1,22 2,43 3,64 0,8 -5,15 -12,16 -51,3 -105,6 -162,10 -61,3 -127,7 -198,11 -10,1 -20,-6 -20,-16 -2,-27 -4,-54 -6,-81 -1,-26 -3,-53 -5,-80 0,-10 8,-18 19,-18z"/>
  <path class="fil0" d="M95 50c66,2 128,4 186,6 54,1 105,3 153,4 1,0 2,1 2,2 0,1 0,1 0,2 0,1 0,2 -1,2 -49,-2 -100,-3 -154,-5 -58,-1 -120,-3 -186,-5 -1,0 -2,-1 -3,-2 0,-1 0,-1 0,-2 0,-1 1,-2 3,-2z"/>
  <path class="fil0" d="M185 123c14,0 26,11 26,24 1,13 -9,25 -23,25 -14,0 -27,-10 -27,-24 -1,-14 10,-25 24,-25z"/>
  <path class="fil4" d="M242 120c25,-1 50,-1 75,-1 6,0 11,5 11,12 0,7 1,15 1,23 1,6 -4,11 -10,12 -24,0 -49,1 -75,2 -6,0 -12,-5 -12,-12 -1,-8 -1,-16 -2,-24 0,-7 5,-12 12,-12z"/>
  <path class="fil0" d="M368 122c12,-1 21,9 22,21 0,12 -8,23 -19,23 -12,0 -22,-9 -22,-22 -1,-12 8,-22 19,-22z"/>
  <path class="fil4" d="M286 273c6,0 10,4 11,10 0,5 -4,10 -10,11 -5,0 -10,-4 -10,-9 -1,-6 4,-11 9,-12z"/>
  <path class="fil4" d="M323 270c5,-1 10,3 10,9 0,5 -4,10 -9,11 -5,0 -10,-4 -10,-9 0,-6 4,-11 9,-11z"/>
  <path class="fil4" d="M245 277c6,0 11,4 11,10 0,5 -4,10 -10,11 -6,1 -11,-4 -11,-9 0,-6 4,-11 10,-12z"/>
  <path class="fil0" d="M222 221c1,0 1,0 2,0 -2,14 -5,29 -8,43 -2,15 -5,30 -8,44 -1,0 -1,0 -2,0 2,-14 5,-29 8,-43 2,-15 5,-29 8,-44z"/>
  <path class="fil0" d="M340 214c-1,0 -2,0 -3,0 4,13 8,26 12,39 3,13 7,26 10,39 1,0 2,0 3,0 -4,-13 -8,-26 -11,-39 -4,-13 -8,-26 -11,-39z"/>
  <path class="fil4" d="M96 63c66,2 128,3 185,5 55,1 106,2 154,3 1,0 2,1 2,2 0,1 0,1 0,2 0,1 -1,2 -2,2 -48,-1 -99,-2 -153,-4 -58,-1 -120,-2 -186,-3 -1,-1 -3,-2 -3,-3 0,0 0,-1 0,-1 0,-2 1,-3 3,-3z"/>
  <path class="fil0" d="M97 77c66,1 127,2 185,3 54,1 105,2 153,3 1,0 2,1 2,2 0,0 0,1 0,1 0,1 0,2 -1,2 -48,-1 -100,-1 -154,-2 -57,-1 -119,-2 -185,-3 -1,0 -3,-1 -3,-2 0,-1 0,-1 0,-2 0,-1 1,-2 3,-2z"/>
 </g>
</svg>
